<?xml version="1.0" encoding="utf-8"?>
<!-- Generator: Adobe Illustrator 18.1.1, SVG Export Plug-In . SVG Version: 6.00 Build 0)  -->
<svg version="1.1" id="Layer_1" xmlns="http://www.w3.org/2000/svg" xmlns:xlink="http://www.w3.org/1999/xlink" x="0px" y="0px"
	 width="30px" height="30px" viewBox="0 0 30 30" enable-background="new 0 0 30 30" xml:space="preserve">
<path d="M22.1,12.7L22.1,12.7l0.1-0.1L22.1,12.7L22.1,12.7z M19,15L19,15l3.2,2.3L30,15l-7.9-2.3L19,15L19,15z M22.1,17.3l0.1,0
	L22.1,17.3L22.1,17.3L22.1,17.3z M10.4,8.9L10.4,8.9L10.4,8.9L10.4,8.9z M19.6,21.1L19.6,21.1L19.6,21.1L19.6,21.1z M17.8,15.9
	L19,15l-1.3-0.9l0.4-1.4l-1.5,0l-0.5-1.5l0,0l0,0L15,12.1l-1.2-0.9l-0.5,1.4l-1.6,0h0l0,0l0.5,1.5L11,15l1.3,0.9l-0.4,1.4l1.5,0
	l0.5,1.5l0,0l0,0l1.2-0.9l1.2,0.9l0.5-1.4l1.6,0h0l0,0L17.8,15.9z M22.1,17.3l-3.9,0l1.3,3.8l7.6,2.7L22.1,17.3z M19.4,8.7l-1.2,3.8
	l0,0.1l0.1,0l4,0l4.9-6.4l-7.7,2.7l0.2-8.2L15,7.5l1.2,3.7L19.4,8.7z M11,15L11,15l-3.2-2.3L0,15l7.9,2.3L11,15L11,15z M7.9,17.3
	l-0.1,0.1L7.9,17.3L7.9,17.3L7.9,17.3z M15,22.5l0,0.1L15,22.5L15,22.5L15,22.5z M16.2,18.8L16.2,18.8L15,22.5l4.6,6.7l-0.2-8.2
	l0.1,0L16.2,18.8L16.2,18.8z M10.6,21.3l1.2-3.8l0-0.1l-0.1,0l-4,0l-4.9,6.4l7.7-2.7l-0.2,8.2l4.6-6.7l-1.2-3.7L10.6,21.3z M15,7.5
	l0-0.1L15,7.5L15,7.5L15,7.5z M7.9,12.7l-0.1,0L7.9,12.7L7.9,12.7L7.9,12.7z M13.8,11.2L13.8,11.2L15,7.5l-4.6-6.7l0.2,8.2l-0.1,0
	L13.8,11.2L13.8,11.2z M10.4,8.9L2.9,6.2l5,6.5l3.9,0L10.4,8.9z"/>
</svg>
